<svg width="16" height="15" viewBox="0 0 16 15" fill="none" xmlns="http://www.w3.org/2000/svg">
<path d="M7.07327 0.816985C7.44008 0.0737391 8.49992 0.07374 8.86674 0.816986L10.3824 3.88798C10.528 4.18313 10.8096 4.38769 11.1353 4.43502L14.5243 4.92748C15.3446 5.04667 15.6721 6.05464 15.0786 6.63317L12.6262 9.02361C12.3905 9.25335 12.283 9.58435 12.3386 9.90874L12.9175 13.2841C13.0577 14.101 12.2002 14.724 11.4666 14.3383L8.43534 12.7446C8.14402 12.5915 7.79598 12.5915 7.50466 12.7446L4.47341 14.3383C3.73978 14.724 2.88235 14.101 3.02246 13.2841L3.60137 9.90874C3.65701 9.58435 3.54946 9.25335 3.31378 9.02361L0.861441 6.63317C0.267924 6.05464 0.595436 5.04667 1.41566 4.92748L4.8047 4.43502C5.13041 4.38769 5.41198 4.18313 5.55764 3.88798L7.07327 0.816985Z" fill="black"/>
</svg>
