<svg width="16" height="15" viewBox="0 0 16 15" fill="none" xmlns="http://www.w3.org/2000/svg">
<path d="M7.61131 1.08252C7.75803 0.785227 8.18197 0.785226 8.3287 1.08253L9.84432 4.15352C10.0774 4.62575 10.5279 4.95306 11.049 5.02879L14.4381 5.52124C14.7662 5.56892 14.8972 5.97211 14.6598 6.20352L12.2074 8.59396C11.8303 8.96154 11.6582 9.49114 11.7473 10.0102L12.3262 13.3855C12.3822 13.7123 12.0393 13.9615 11.7458 13.8072L8.71455 12.2136C8.24843 11.9685 7.69157 11.9685 7.22546 12.2136L4.1942 13.8072C3.90075 13.9615 3.55778 13.7123 3.61382 13.3855L4.19274 10.0102C4.28176 9.49114 4.10968 8.96154 3.73258 8.59396L1.28025 6.20352C1.04284 5.97211 1.17384 5.56892 1.50194 5.52124L4.89098 5.02879C5.41212 4.95306 5.86262 4.62575 6.09568 4.15352L7.61131 1.08252Z" stroke="black" stroke-width="1.2"/>
</svg>
