<svg width="53" height="33" viewBox="0 0 53 33" fill="black" xmlns="http://www.w3.org/2000/svg">
<path d="M52.1415 0V0.374591C50.2856 0.374591 47.4592 1.80484 44.0538 9.99472L35.932 32.7084H34.2634C29.9386 22.6286 27.1633 16.1244 25.3073 11.9017L17.8837 32.7084H16.215C4.51764 5.34641 3.90469 4.15454 3.90469 4.15454C2.3212 0.4427 1.67417 0.493776 0.465271 0.391615V0.0170304H14.9551V0.391615C11.9754 0.391615 14.3591 5.77208 14.3591 5.77208L21.3741 21.7091L25.086 11.3569C22.2595 4.7675 21.9701 4.15454 21.9701 4.15454C20.3866 0.4427 19.7396 0.493776 18.5307 0.391615V0.0170304H33.0205V0.391615C30.0408 0.391615 32.4245 5.77208 32.4245 5.77208L39.3885 21.7432L43.56 9.99472C44.7179 6.69153 43.6963 0.374591 38.9628 0.374591V0H52.1415Z" fill="black"/>
</svg>
